<svg width="320px" height="173px" viewBox="0 0 320 173" version="1.1" xmlns="http://www.w3.org/2000/svg" xmlns:xlink="http://www.w3.org/1999/xlink">
    <!-- Generator: Sketch 46.2 (44496) - http://www.bohemiancoding.com/sketch -->
    <title>Slice 1</title>
    <desc>Created with Sketch.</desc>
    <defs></defs>
    <g id="Page-1" stroke="none" stroke-width="1" fill="none" fill-rule="evenodd">
        <text id="OpenAPI-Security-Sca" font-family="Montserrat-Regular, Montserrat" font-size="18" font-weight="normal" line-spacing="36" letter-spacing="1.52307701" fill="#1D1D1B">
            <tspan x="23.6386032" y="156">OpenAPI Security Scanner</tspan>
        </text>
        <g id="space-observatory" transform="translate(97.000000, 2.000000)" fill-rule="nonzero">
            <path d="M5.26835452,88.6571577 C4.300665,77.3687061 5.98128508,66.0100317 10.1761279,55.4873765 C17.4150937,38.4110818 23.8442769,30.9171682 31.1568593,29.5412366 C36.5862837,28.7611493 42.1213086,29.7884223 46.910812,32.4650914 L49.3646987,34.6272697 C54.0560596,29.6141913 60.3484868,26.3987821 67.1553773,25.5362926 C71.8177621,24.995748 79.4248109,28.8778409 79.4248109,28.8778409 C83.7302918,29.054239 87.9584464,30.0813144 91.8660165,31.8999766 C97.1664118,34.7746909 97.5835725,37.0105799 97.5835725,37.0105799 C97.5835725,37.0105799 107.251886,39.4676007 113.337525,51.7527049 C119.423164,64.037809 119.202314,91.28617 119.202314,91.28617 C119.202314,91.28617 125.754192,91.7775741 126.686669,93.4974887 C127.619146,95.2174033 126.22043,115.045561 125.729653,116.0038 C125.238876,116.962038 99.7920706,131.065337 76.1856804,133.202945 C52.5792903,135.340553 36.015555,133.202945 19.7462861,126.495278 C3.47701722,119.787612 1.88199086,115.364974 1.34213578,113.251936 C0.802280707,111.138898 -0.57189585,95.1191225 0.262425631,92.9323739 C1.33855117,90.9307535 3.12456883,89.4054399 5.26835452,88.6571577 L5.26835452,88.6571577 Z" id="Shape" fill="#1D1D1B"></path>
            <path d="M0.828504014,19.6882793 C0.554173066,18.9713046 6.53957558,18.6993486 6.61439311,18.2296065 C6.68921064,17.7598644 7.01341994,12.7163177 7.63689937,12.5185316 C8.2603788,12.3207454 8.63446646,12.2218524 8.95867576,12.5185316 C9.28288506,12.8152108 10.3053913,17.3148456 10.5547831,17.4631852 C10.8041749,17.6115248 14.619869,17.7104179 14.7445649,18.4026694 C14.8692607,19.0949209 11.9014987,20.8749962 11.9014987,20.8749962 C11.9014987,20.8749962 13.1484575,23.990128 11.9014987,24.4351468 C10.6545398,24.8801656 9.20806753,23.718172 8.98361494,24.0395745 C8.75916234,24.360977 6.14054874,27.4266623 5.44225178,27.1052598 C4.74395482,26.7838573 4.89358989,22.8034111 4.79383318,22.1606061 C4.69407647,21.5178012 1.10283496,20.4794239 0.828504014,19.6882793 Z" id="Shape" fill="#1D1D1B"></path>
            <path d="M30.3658051,0.215350908 C32.5779021,-0.583385619 36.8512714,0.868862612 35.9211852,4.08801286 C35.3374476,5.48810867 34.1591899,6.58063673 32.6841381,7.08953349 C31.2090863,7.59843025 29.5783479,7.47501327 28.203983,6.75046795 C26.1678483,5.34662799 26.74601,1.52237432 30.3658051,0.215350908 Z" id="Shape" fill="#1D1D1B"></path>
            <path d="M31.0219829,2.5632708 C32.026038,2.20484059 33.9624298,2.85449535 33.5321205,4.26581431 C33.2911885,4.89992025 32.7587579,5.39890138 32.0820995,5.62473906 C31.405441,5.85057673 30.6562796,5.77933247 30.041834,5.4307125 C29.0855911,4.93787096 29.3724639,3.1457199 31.0219829,2.5632708 Z" id="Shape" fill="#CBE7F5"></path>
            <path d="M50.5145233,9.3888034 C51.6300675,8.84941084 52.9219632,8.9455252 53.958072,9.64499629 C54.9941808,10.3444674 55.6377089,11.5549465 55.6733965,12.871529 C56.2915104,16.2006049 50.0152775,17.5322352 49.0405596,15.4323566 C48.3918719,14.4489147 48.1814438,13.2062463 48.4660173,12.039437 C48.7505907,10.8726278 49.500863,9.90182414 50.5145233,9.3888034 L50.5145233,9.3888034 Z" id="Shape" fill="#1D1D1B"></path>
            <path d="M51.0092464,10.813467 C51.4970855,10.601695 52.0490477,10.6585053 52.491558,10.9660327 C52.9340682,11.2735601 53.2127606,11.7940224 53.2399949,12.3637503 C53.5076847,13.8655873 50.7192491,14.4469436 50.2954069,13.550686 C49.9975254,13.1008846 49.9049402,12.5280683 50.043959,11.9950005 C50.1829778,11.4619327 50.5384046,11.0268823 51.0092464,10.813467 L51.0092464,10.813467 Z" id="Shape" fill="#CBE7F5"></path>
            <path d="M96.3298082,7.71260398 C96.645354,7.71260398 97.7376278,2.91079738 98.3444466,2.71872512 C98.9512654,2.52665286 99.7522663,2.26255349 100.019267,2.71872512 C100.330716,4.34591079 100.549516,5.98911626 100.674631,7.64057688 C100.674631,7.64057688 104.752453,7.28044138 104.873817,8.09674851 C104.995181,8.91305563 102.009632,10.4256247 102.009632,10.7377421 C102.009632,11.0498596 102.470815,13.6428351 102.009632,13.6668442 C101.54845,13.6908532 98.6842652,12.5624286 98.1017191,12.826528 C97.519173,13.0906274 94.6549883,16.6919823 94.1209877,16.4278829 C93.5869871,16.1637836 92.1791675,15.707612 92.5432588,15.2994584 C92.9073501,14.8913048 94.970534,10.2095434 94.970534,10.2095434 C93.6897923,10.1038762 92.4265924,9.84592003 91.2082574,9.44125435 C90.9655299,9.08111886 90.7713479,8.19278464 91.2082574,8.02472141 C91.645167,7.85665818 95.8200804,7.83264914 96.3298082,7.71260398 Z" id="Shape" fill="#1D1D1B"></path>
            <path d="M113.75837,27.9902773 C115.051121,28.1115151 116.188819,28.8719006 116.769631,30.0028672 C117.350443,31.1338339 117.292622,32.4762029 116.61659,33.5558524 C115.391639,35.8943293 110.203608,35.8943293 109.410992,33.8598544 C108.719373,32.5004968 108.856845,30.8801774 109.768188,29.6497347 C110.679531,28.4192921 112.215205,27.7806283 113.75837,27.9902773 L113.75837,27.9902773 Z" id="Shape" fill="#1D1D1B"></path>
            <path d="M113.820022,29.6181282 C114.470524,29.6765567 115.045122,30.0944954 115.335023,30.7200763 C115.624924,31.3456572 115.587931,32.0878228 115.237486,32.6768899 C114.615791,34.0067862 112.02954,34.0333842 111.656524,32.8364774 C111.305347,32.0926626 111.370353,31.2016327 111.825154,30.5250857 C112.279955,29.8485386 113.048967,29.4989111 113.820022,29.6181282 L113.820022,29.6181282 Z" id="Shape" fill="#CBE7F5"></path>
            <path d="M10.0333267,87.3040815 C9.40860286,78.9450332 10.2422906,70.5414557 12.4974899,62.4653009 C16.0458849,50.9899313 22.4773509,38.6073211 28.4652675,35.0764381 C34.4531841,31.5455552 41.3528411,31.7907554 49.4352965,39.4410018 C57.5177518,47.0912481 60.7458056,66.4130241 61.4357713,73.2295898 C62.125737,80.0461554 62.4707199,99.7357318 62.1503787,99.8828519 C61.8300375,100.029972 55.4478547,101.550213 40.6628754,97.62701 C25.8778962,93.7038068 14.3948956,92.4287657 10.0333267,87.3040815 Z" id="Shape" fill="#E6E4DA"></path>
            <path d="M20.5233152,50.5344817 C20.1994686,50.0510473 21.8934354,46.9812392 24.733321,43.5005118 C27.5732066,40.0197844 29.7155764,38.4002793 30.6123824,38.6661682 C31.5091884,38.9320571 32.1817929,40.4065319 31.8828575,40.648249 C29.2322524,42.0689773 27.0086182,44.1349605 25.4308368,46.6428351 C23.5375797,50.2202494 23.8614263,51.791411 23.1639106,51.791411 C22.1796552,51.6209877 21.2646276,51.1854325 20.5233152,50.5344817 Z" id="Shape" fill="#1D1D1B"></path>
            <path d="M54.4941359,77.2837306 C54.4941359,77.2837306 56.7896971,78.8824536 56.5122117,79.5715583 C56.2347263,80.260663 56.0076928,80.5363049 55.7806592,80.5638691 C55.5536257,80.5914333 53.2580645,79.5715583 53.2580645,79.240788 C53.2580645,78.9100178 54.0905208,77.1459097 54.4941359,77.2837306 Z" id="Shape" fill="#1D1D1B"></path>
            <path d="M51.8017316,81.3865031 C53.8645043,82.8591997 55.7316499,84.6088064 57.3548387,86.5900357 C57.3548387,87.1200252 57.3548387,87.8668285 56.9846316,87.9631902 C54.7589459,86.6024928 52.6867362,84.9863782 50.8067999,83.1451044 C50.7142481,82.8319288 51.5934901,81.3865031 51.8017316,81.3865031 Z" id="Shape" fill="#1D1D1B"></path>
            <path d="M49.4137402,86.3190184 C52.2384433,88.6440069 54.8924197,91.1722351 57.3548387,93.8838595 C57.3548387,94.5715724 57.3548387,95.4312134 56.8920139,95.3575299 C53.8522759,93.0715869 50.9936162,90.5505463 48.3419355,87.8172499 C48.6252957,87.2680998 48.9863407,86.7634099 49.4137402,86.3190184 Z" id="Shape" fill="#1D1D1B"></path>
            <path d="M45.8905687,89.607362 C46.4308517,89.7334392 53.2580645,98.0545359 53.2580645,98.0545359 C53.2580645,98.0545359 51.146049,98.8866456 50.8022326,98.5840603 C48.4733501,96.0734748 46.2841854,93.4300631 44.2451613,90.6664106 C44.5398611,90.3890407 45.8905687,89.607362 45.8905687,89.607362 Z" id="Shape" fill="#1D1D1B"></path>
            <path d="M45.881247,97.2385205 C44.5814029,95.4362209 43.1648853,93.7113088 41.6397711,92.0736196 C41.2284764,92.0736196 40.1231221,92.2191098 40.148828,92.6798287 C41.1716184,94.524634 42.4321944,96.2431276 43.9018916,97.7962328 C44.3131862,97.9902197 45.9583648,97.2385205 45.881247,97.2385205 Z" id="Shape" fill="#1D1D1B"></path>
            <path d="M8.94733332,91.2515337 C18.0394967,95.7259125 27.5939828,99.2041907 37.4423778,101.625058 C51.805385,105.222053 66.71298,106.151021 81.4153004,104.365234 C91.5143331,103.042561 101.358697,100.230718 110.623951,96.0223762 C113.330735,94.9703443 114.73334,93.7470513 116.037518,93.7470513 C117.341695,93.7470513 122.952118,94.7501515 122.902904,95.3862639 C122.85369,96.0223762 119.827014,101.331468 108.901453,105.661925 C91.6796873,113.089193 72.8892615,116.205752 54.1752191,114.738758 C28.6576361,112.708092 17.2645397,103.97378 11.7279378,101.282536 C6.19133593,98.5912914 4.93637283,98.12644 5.08401555,97.8083839 C5.23165827,97.4903277 4.6410874,93.6981196 5.08401555,93.1354049 C6.30856371,92.3866537 7.60220375,91.7558355 8.94733332,91.2515337 Z" id="Shape" fill="#E6E4DA"></path>
            <path d="M78.3129739,106.694758 C80.6415403,105.685927 83.3002119,105.867155 85.4771993,107.183106 C88.1669261,109.059394 86.4827047,111.32122 84.0694919,112.092297 C81.7855204,113.028525 79.1932892,112.718979 77.1817804,111.269815 C76.3866567,110.644808 76.0309701,109.596345 76.2767866,108.602152 C76.5226031,107.60796 77.3228788,106.858303 78.3129739,106.694758 Z" id="Shape" fill="#1D1D1B"></path>
            <path d="M80.2316557,107.945534 C81.1430415,107.554411 82.1894911,107.621073 83.0424212,108.124587 C84.0851246,108.818416 83.4277681,109.668917 82.4984021,109.959877 C81.6108836,110.311506 80.6031904,110.193457 79.8236413,109.646535 C79.5416271,109.406514 79.4184912,109.031376 79.5042988,108.673646 C79.5901064,108.315917 79.8705692,108.035163 80.2316557,107.945534 L80.2316557,107.945534 Z" id="Shape" fill="#F2910D"></path>
            <path d="M103.720987,100.375913 C105.593886,98.8123803 108.085499,98.2700886 110.41531,98.9189143 C113.324856,99.9145298 112.355008,102.41571 110.41531,103.775575 C108.574832,105.226138 106.143255,105.619309 103.957536,104.819757 C103.076671,104.482172 102.4742,103.641078 102.422897,102.677288 C102.371593,101.713499 102.8812,100.810021 103.720987,100.375913 L103.720987,100.375913 Z" id="Shape" fill="#1D1D1B"></path>
            <path d="M106.191279,101.772597 C106.981124,101.178239 108.035386,100.971877 109.020439,101.218816 C110.249501,101.602203 109.832084,102.539371 109.020439,103.029255 C108.249332,103.578145 107.227818,103.730508 106.307228,103.433941 C105.957936,103.293204 105.723272,102.985284 105.698872,102.635674 C105.674472,102.286063 105.86441,101.953145 106.191279,101.772597 L106.191279,101.772597 Z" id="Shape" fill="#F2910D"></path>
            <path d="M52.0085248,107.539854 C54.3613416,106.49997 57.0611689,106.681076 59.2603035,108.026308 C61.9452181,109.895316 60.2640098,112.148367 57.8551145,112.916453 C55.5752292,113.849048 52.9876358,113.540703 50.9797257,112.097161 C50.1887303,111.488873 49.8224507,110.462732 50.0447778,109.477882 C50.2671049,108.493031 51.0364317,107.733781 52.0085248,107.539854 Z" id="Shape" fill="#1D1D1B"></path>
            <path d="M53.9806801,108.769239 C54.9006877,108.375606 55.9570369,108.442695 56.8180358,108.949441 C57.8706032,109.647722 57.2070281,110.50368 56.2688702,110.796508 C55.3653038,111.137486 54.34751,111.001631 53.5688059,110.436105 C53.3092389,110.191585 53.2016999,109.829435 53.2866134,109.485788 C53.3715268,109.142141 53.6360244,108.869076 53.9806801,108.769239 L53.9806801,108.769239 Z" id="Shape" fill="#F2910D"></path>
            <path d="M29.8859441,103.429425 C32.2387609,102.38954 34.9385882,102.570647 37.1377228,103.915879 C39.8226374,105.784887 38.1414292,108.037938 35.7325339,108.806023 C33.4526485,109.738619 30.8650551,109.430274 28.8571451,107.986732 C28.0661496,107.378444 27.69987,106.352302 27.9221971,105.367452 C28.1445242,104.382602 28.913851,103.623351 29.8859441,103.429425 Z" id="Shape" fill="#1D1D1B"></path>
            <path d="M31.8897202,104.657191 C32.801106,104.266068 33.8475557,104.332729 34.7004858,104.836243 C35.7431891,105.530073 35.0858326,106.380573 34.1564666,106.671534 C33.2689481,107.023162 32.2612549,106.905113 31.4817059,106.358191 C31.1996916,106.11817 31.0765558,105.743032 31.1623633,105.385303 C31.2481709,105.027573 31.5286337,104.746819 31.8897202,104.657191 L31.8897202,104.657191 Z" id="Shape" fill="#F2910D"></path>
            <path d="M12.980881,96.204766 C15.0244963,96.0814728 17.0006102,96.9804446 18.2896037,98.6198049 C19.8099421,100.777925 17.9406735,102.011136 15.9218635,101.93406 C13.9431321,102.014032 12.0623221,101.044637 10.9371474,99.3648701 C10.5365579,98.6680462 10.558994,97.7961841 10.9948585,97.1222328 C11.430723,96.4482814 12.2028218,96.0916011 12.980881,96.204766 L12.980881,96.204766 Z" id="Shape" fill="#1D1D1B"></path>
            <path d="M14.0217169,97.8342737 C14.848882,97.7849267 15.6475994,98.1615783 16.1659679,98.8454393 C16.7719519,99.7332921 16.0261255,100.251206 15.2103778,100.201881 C14.4230947,100.225284 13.6778941,99.8263759 13.2292763,99.1413902 C13.0664353,98.8592975 13.0701395,98.5035729 13.2388152,98.2253455 C13.4074908,97.947118 13.7115124,97.7952544 14.0217169,97.8342737 L14.0217169,97.8342737 Z" id="Shape" fill="#F2910D"></path>
            <path d="M5.02236143,102.760736 C14.0139174,107.951067 23.6021331,112.046336 33.5797673,114.958028 C51.062891,119.836944 62.8492666,121.886089 81.3391433,118.787977 C93.7395254,116.638228 105.806713,112.899035 117.238479,107.664047 C119.472979,106.541897 122.149469,104.053649 122.370463,104.565935 C122.591458,105.078222 123.254441,112.372202 122.665123,112.78691 C122.206486,113.062472 121.697372,113.244888 121.167271,113.323591 C121.261686,111.513119 121.162916,109.697805 120.872611,107.907993 C120.479732,107.78602 118.613556,108.639831 118.638111,109.103328 C118.94257,110.809554 119.057848,112.543795 118.98188,114.274979 C118.613556,114.592109 116.256281,116.324124 116.231726,115.787444 C116.207171,115.250763 116.231726,110.44503 115.863402,110.469424 C115.495078,110.493819 114.193665,110.932921 114.07089,111.323235 C113.948116,111.713548 114.41466,116.202151 114.193665,116.592465 C113.972671,116.982778 112.695813,117.202329 112.695813,117.202329 C112.670703,115.519809 112.531241,113.840894 112.278379,112.177045 C112.03283,112.177045 109.994769,112.762515 110.092989,113.201618 C110.191209,113.64072 110.510423,118.080534 110.510423,118.080534 L108.472362,118.64161 C108.56889,117.01039 108.478273,115.373556 108.202258,113.762693 C107.833933,113.762693 105.918647,114.274979 105.943202,114.567714 C105.993547,116.588773 105.895064,118.610783 105.648543,120.617571 C96.6300658,124.56577 87.0275983,127.037209 77.2139119,127.935946 C61.2531949,129.619172 42.2722193,129.936302 26.8271563,125.252542 C11.3820933,120.568782 6.52021333,114.836055 5.78356486,112.811304 C5.00518874,109.52084 4.7483654,106.129867 5.02236143,102.760736 L5.02236143,102.760736 Z" id="Shape" fill="#DDC07C"></path>
            <path d="M10.2880301,107.693252 C10.496814,107.693252 12.1902835,107.95233 12.6078513,108.682461 C13.0254191,109.412592 13.4893834,116.007321 12.6078513,115.913111 C11.5877221,115.712612 10.6778677,115.133166 10.056048,114.287981 C9.80086764,113.840482 9.63848016,107.881672 10.2880301,107.693252 Z" id="Shape" fill="#1D1D1B"></path>
            <path d="M81.3342387,32.951305 C87.0250504,32.1687674 97.7443811,38.20898 97.4990875,48.1863354 C97.2537939,58.1636907 87.0250504,63.3480028 75.6924858,55.0824487 C64.3599211,46.8168945 70.5167907,34.6141976 81.3342387,32.951305 Z" id="Shape" fill="#CBE7F5"></path>
            <path d="M82.235432,35.4140121 C86.7439304,34.7315042 95.2159437,39.5334348 95.0425399,47.30915 C94.8691361,55.0848651 86.7439304,59.1555373 77.7021617,52.6960874 C68.6603931,46.2366375 73.7386467,36.6815268 82.235432,35.4140121 Z" id="Shape" fill="#1D1D1B"></path>
            <path d="M82.1566148,37.8200318 C87.274232,37.6693543 91.5593286,41.7096745 91.7677419,46.882145 C91.623575,52.8101762 85.6166206,55.9199631 78.9609151,50.9880355 C72.3052095,46.0561079 75.8372988,38.7918402 82.1566148,37.8200318 Z" id="Shape" fill="#696A9B"></path>
            <path d="M81.6867872,40.500958 C82.1263202,40.1395724 83.5224838,40.1653856 83.5741935,41.0430364 C82.7536825,43.675746 81.579524,46.1852681 80.0837846,48.5030675 C79.7476711,48.5030675 78.5842014,47.8577361 78.6617661,47.5996035 C79.4836467,45.1584393 80.4950565,42.7850212 81.6867872,40.500958 Z" id="Shape" fill="#1D1D1B"></path>
            <path d="M86.1571503,41.1748996 C86.5542172,40.9371708 87.3979843,41.3413097 87.6709677,41.7692215 C86.7844634,44.9853495 85.4664689,48.0778201 83.7499325,50.9693252 C83.2784156,50.8504608 81.8638649,50.5414134 81.938315,50.3274575 C83.1696584,47.2053267 84.578033,44.1499267 86.1571503,41.1748996 L86.1571503,41.1748996 Z" id="Shape" fill="#1D1D1B"></path>
            <path d="M89.5225323,44.4153467 C89.7403977,44.2652556 91.0748232,44.8906352 90.9386573,45.3659237 C90.3057813,47.3162772 89.438032,49.1956984 88.3515058,50.9693252 C87.8340755,50.9693252 86.7992149,50.7191733 86.8536812,50.3439455 C87.5265282,48.2911652 88.4205692,46.3051382 89.5225323,44.4153467 L89.5225323,44.4153467 Z" id="Shape" fill="#1D1D1B"></path>
            <path d="M65.8095067,44.392638 C64.9426505,50.3922871 67.8521915,56.3041965 73.0966604,59.1994383 C77.6425635,61.5743728 82.5857116,63.0642335 87.6709677,63.5921224 C85.0268877,66.1961731 82.1751596,68.5733788 79.1449979,70.6993865 C74.458969,68.8681221 69.9330416,66.639228 65.6151826,64.0363264 C62.9189358,61.9386963 62.8703547,62.3335444 62.9189358,61.9386963 C62.9675168,61.5438483 62.5545781,59.4708963 62.1416394,55.8679082 C61.7287007,52.2649202 61.3886335,51.8207162 61.461505,51.5739362 C61.5343766,51.3271562 65.6151826,44.688774 65.8095067,44.392638 Z" id="Shape" fill="#92A0D1"></path>
            <path d="M64.8983186,66.5889571 C66.612756,67.4513134 68.2510453,68.4672533 69.7944574,69.6251624 C70.7878769,70.2617861 72.443576,70.8494387 72.0414776,71.559519 C71.6393793,72.2695993 65.5842511,79.9580547 65.3950284,79.737685 C65.2058056,79.5173152 64.3779561,66.8338123 64.8983186,66.5889571 Z" id="Shape" fill="#696A9B"></path>
            <path d="M85.4356948,70.5750901 C85.4356948,70.5750901 87.5321019,74.6318241 86.4959467,83.9078928 C85.4597914,93.1839614 83.0501281,99.1948539 83.6766405,99.4669519 C85.6342249,99.5181124 87.5848587,99.2081165 89.435736,98.5517132 C90.6104456,92.9883801 91.1042261,87.296301 90.9056307,81.6074278 C90.7341679,77.0769733 89.9972213,72.5878177 88.712837,68.2498889 C88.3031942,68.0025271 85.4356948,70.5750901 85.4356948,70.5750901 Z" id="Shape" fill="#FFFFFF"></path>
            <path d="M52.4387097,36.3736393 C52.4387097,36.3736393 58.682401,29.8770897 64.8534912,28.9063409 C68.6084831,28.3751074 72.4114569,29.4451513 75.3806452,31.8683693 L71.8231931,33.38672 C71.8231931,33.38672 68.6771471,31.2958764 63.0384647,33.38672 C59.7733283,34.5853586 56.8927773,36.6868494 54.7135429,39.4601227 L52.4387097,36.3736393 Z" id="Shape" fill="#FFFFFF"></path>
            <path d="M100.71426,43.5705521 C106.253731,47.2152805 110.123111,52.9261302 111.468633,59.4430185 C112.984054,67.2260986 114.066086,75.0881679 114.709677,82.9925253 C114.709677,82.9925253 107.049028,73.3653684 106.754388,73.6122186 C106.459747,73.8590688 105.428506,74.5996193 105.526719,74.9945796 C105.624933,75.3895398 114.611464,85.3376019 114.636017,86.1768925 C114.645196,86.8323558 114.579286,87.4867024 114.43959,88.1270089 L112.843622,88.5960243 C112.843622,88.5960243 104.470925,79.9315831 104.249945,80.0056381 C104.028964,80.0796932 103.071383,81.0670939 103.26781,81.6101643 C103.464237,82.1532347 111.14944,89.8302752 110.781139,90.1758654 C109.936699,90.6444927 109.058501,91.0488144 108.153929,91.3854313 C106.263403,89.2258913 104.246446,87.1816337 102.113802,85.2635469 C101.745501,85.2635469 100.395066,86.2015776 100.812474,86.7199629 C102.640003,88.5876673 104.361464,90.5573588 105.96868,92.6196821 C105.472798,92.9562748 104.946704,93.2455251 104.397265,93.4836578 C102.634965,91.6757456 100.720899,90.0239608 98.676331,88.5466542 C98.2343704,88.7194494 97.4241094,89.682165 97.6941964,90.1511804 C97.9642834,90.6201957 102.604869,94.4463734 102.089249,94.9400738 C100.106437,95.8325591 98.0634293,96.5832038 95.975461,97.1864104 C94.9277389,97.4752092 93.8611358,97.6896736 92.7835237,97.8282209 C94.6259357,91.1414875 95.2006579,84.1659711 94.4777058,77.2656012 C94.1972155,73.1049265 93.5647263,68.975832 92.5870968,64.9230924 C95.1351092,62.2579397 97.4057935,59.3381953 99.3638251,56.2092812 C100.824714,53.7271702 101.533002,50.8702481 101.401754,47.9891703 C101.24602,46.5056936 101.016569,45.030978 100.71426,43.5705521 Z" id="Shape" fill="#E6E4DA"></path>
            <path d="M108.482028,66.5889571 C108.482028,66.5889571 112.692348,70.5400025 112.817655,71.622136 C112.942962,72.7042694 113.318884,73.8115688 112.817655,73.9877301 C110.972739,73.0263236 109.389726,71.6267742 108.206352,69.9108551 C108.084976,68.7960528 108.178573,67.6682092 108.482028,66.5889571 L108.482028,66.5889571 Z" id="Shape" fill="#1D1D1B"></path>
        </g>
    </g>
</svg>